<svg version="1.1" id="Layer_1" xmlns="http://www.w3.org/2000/svg" xmlns:xlink="http://www.w3.org/1999/xlink" x="0px" y="0px"
	 width="100%" viewBox="0 0 154 164" enable-background="new 0 0 154 164" xml:space="preserve">
<path fill="#F46700" opacity="1.000000" stroke="none" 
	d="
M1.000000,65.000000 
	C1.000000,43.699688 1.000000,22.399374 1.000000,1.049530 
	C52.220821,1.049530 103.441704,1.049530 155.000000,1.049530 
	C155.000000,22.353043 155.000000,43.707863 154.707947,65.347076 
	C153.782959,64.486992 153.061356,63.381828 152.533279,62.190857 
	C150.778366,58.232944 147.433197,55.746407 143.503906,56.542461 
	C140.114563,57.229122 136.231247,59.319027 134.196503,62.017689 
	C130.442352,66.996758 134.334976,74.331970 140.099670,73.945602 
	C141.800171,73.831619 143.729050,72.479286 144.916779,71.132942 
	C145.610031,70.347107 145.043045,68.449486 145.043045,67.052055 
	C144.601822,66.877106 144.160583,66.702164 143.719360,66.527214 
	C142.868134,70.016541 141.489304,72.681427 137.649002,70.587639 
	C134.973160,69.128723 134.197632,64.550667 136.828201,62.360535 
	C138.909470,60.627731 142.186676,59.200787 144.725006,59.486187 
	C146.971741,59.738808 150.159485,62.196537 150.746826,64.292892 
	C151.769928,67.944763 151.111893,72.067635 150.991562,76.233772 
	C150.526276,76.976982 150.227982,77.479485 149.780533,78.405716 
	C149.747391,79.400070 149.863403,79.970695 149.894913,80.588280 
	C149.810410,80.635239 149.445740,80.923103 149.169388,80.651062 
	C142.452179,81.874031 136.055817,82.772362 130.003052,78.991768 
	C129.996399,79.012093 130.040588,79.003716 130.101624,78.658432 
	C130.117767,77.847633 130.072891,77.382126 129.929565,76.719437 
	C129.481384,76.075653 129.131653,75.629051 128.535217,74.851517 
	C124.546112,68.074005 126.246651,61.111866 126.449806,54.304615 
	C126.460243,53.954681 127.425926,53.633255 128.125153,53.580128 
	C130.072113,55.062038 131.840790,56.262383 134.334793,57.954983 
	C135.964752,50.683468 133.189896,46.044960 129.997803,41.098278 
	C130.007599,36.926434 129.994965,33.185543 130.352982,29.371109 
	C132.888031,25.493303 129.686844,26.326054 127.894104,26.099985 
	C121.751587,25.325399 115.606026,24.561888 109.445869,23.953724 
	C108.485008,23.858862 107.442062,24.595423 106.459473,24.955906 
	C106.481873,24.964291 106.529205,24.967409 106.283234,24.675364 
	C102.411423,24.446516 102.347076,24.703920 104.971939,29.369141 
	C105.798691,30.415768 106.518753,31.165041 106.912888,32.205414 
	C97.640434,32.882694 88.107819,35.900551 81.192780,26.474281 
	C77.898560,16.647392 79.287338,10.481874 85.505219,6.641934 
	C91.852318,2.722196 100.330772,6.946025 100.797180,14.260136 
	C101.131454,19.502098 96.384186,23.695524 91.835411,21.955004 
	C90.651924,21.502157 89.418983,20.101469 89.077988,18.891216 
	C88.838753,18.042145 89.938507,16.667307 90.697136,15.736595 
	C91.222580,15.091965 92.185455,14.803883 93.141029,14.246791 
	C89.334740,11.781315 86.771049,12.739335 86.152512,16.523539 
	C85.501671,20.505291 87.035950,23.346624 90.850410,24.842384 
	C94.734749,26.365541 99.851433,24.408594 102.046700,20.578077 
	C104.749123,15.862639 103.971924,10.516400 99.979324,6.356641 
	C95.919830,2.127191 90.118881,0.917522 85.451096,3.633591 
	C82.906410,5.114284 80.642723,7.077888 78.006111,9.003508 
	C76.606400,7.788869 75.292793,6.551297 73.880150,5.439577 
	C66.860649,-0.084612 57.259621,2.137091 53.872707,10.180485 
	C52.047966,14.513962 52.401363,18.841099 55.932404,22.179073 
	C58.734188,24.827662 61.998383,27.125996 66.371201,23.967106 
	C69.824905,21.070044 71.248611,17.859009 68.373474,14.300033 
	C67.518600,13.241828 65.337616,13.254926 63.764256,12.777150 
	C63.437012,13.295251 63.109768,13.813352 62.782524,14.331452 
	C67.366463,15.974333 67.535500,18.830061 65.307571,22.311558 
	C60.663715,23.363716 57.702282,21.648878 56.312069,17.678288 
	C54.924492,13.715223 55.613174,9.603510 59.357811,7.617213 
	C62.126831,6.148422 66.017715,5.424804 69.025688,6.093220 
	C73.687401,7.129120 76.279190,11.023870 77.020042,15.867901 
	C77.978455,22.134506 74.991196,26.703794 70.281799,30.787334 
	C63.334892,34.990986 56.283279,34.132992 48.380291,33.358105 
	C50.053883,30.871338 51.295574,29.198450 52.351189,27.415401 
	C53.754635,25.044830 53.366295,23.309095 50.208817,22.816399 
	C49.890842,22.866405 49.709274,22.904243 49.154884,22.988844 
	C47.829365,23.318073 46.879440,23.613861 45.664394,23.974648 
	C44.894703,24.522127 44.390129,25.004608 43.440048,25.618057 
	C38.838142,25.856813 34.682247,26.024065 30.525236,26.059246 
	C23.267019,26.120670 23.271917,26.086626 23.256014,33.572803 
	C23.247169,37.736813 23.217640,41.900780 22.960854,46.358295 
	C22.261940,49.449444 21.799610,52.247066 21.374073,55.343513 
	C22.607950,55.748329 23.805035,55.854321 25.313931,55.847828 
	C27.367308,54.916073 29.108873,54.096809 30.820580,53.720757 
	C29.867090,61.166958 28.943462,68.169945 27.779873,75.381859 
	C25.687019,77.381104 23.834122,79.171417 21.587610,81.042999 
	C17.057030,81.124275 12.920065,81.124275 8.754247,81.124275 
	C8.657142,82.101219 8.562361,83.054779 8.231174,84.192108 
	C6.661532,86.091331 5.328294,87.806801 3.670027,89.596390 
	C2.563332,90.447014 1.781666,91.223511 1.000000,92.000000 
	C1.000000,86.311958 1.000000,80.623917 1.255097,74.590485 
	C1.865586,74.365562 2.220977,74.486038 2.766655,74.745461 
	C3.136224,74.446960 3.315506,74.009514 3.487507,73.163109 
	C3.513144,70.317131 3.546063,67.880104 3.718168,65.279572 
	C4.019429,64.873413 4.139109,64.611397 4.466429,64.093163 
	C6.200419,62.557133 7.531131,60.461151 9.203100,60.139595 
	C11.928261,59.615494 15.237770,59.501743 17.608500,60.647324 
	C19.309879,61.469467 20.505768,64.567169 20.722198,66.768181 
	C20.850437,68.072273 18.877401,70.116608 17.376270,70.822807 
	C16.622494,71.177414 14.732728,69.379707 13.524939,68.356712 
	C13.131302,68.023300 13.270102,67.061272 13.165384,66.386749 
	C10.108803,70.529991 11.451508,73.087257 14.245897,73.496201 
	C16.566845,73.835861 21.037918,72.553421 21.318260,71.277847 
	C22.109772,67.676437 22.301565,63.182045 20.739973,60.023155 
	C18.912262,56.325935 14.232745,55.108177 10.244410,56.895523 
	C7.433856,58.155052 5.268538,60.854374 2.685650,63.129517 
	C2.472407,63.669910 2.388647,63.991634 2.074879,64.404221 
	C1.526553,64.601990 1.244930,64.770294 1.000000,65.000000 
z"/>
<path fill="#F46700" opacity="1.000000" stroke="none" 
	d="
M3.995055,89.522263 
	C5.328294,87.806801 6.661532,86.091331 8.513111,84.512909 
	C14.141095,84.803230 19.250738,84.956520 24.372681,85.122520 
	C24.553074,85.290871 24.743622,85.409157 24.737070,85.717773 
	C25.196236,85.961197 25.874956,85.976929 26.666183,86.166733 
	C27.184233,86.711731 27.589771,87.082634 27.667768,87.587830 
	C27.103144,88.112595 26.866064,88.503082 26.735502,89.259415 
	C31.902601,96.716743 30.375387,104.971962 30.582680,112.892700 
	C28.810986,112.183266 27.439512,111.354301 25.986305,110.709557 
	C22.931379,109.354149 20.867237,109.743752 21.127705,114.130463 
	C21.458984,115.721016 21.777485,116.933105 22.126465,118.556503 
	C22.535700,124.501930 23.057720,130.031342 23.239183,135.571930 
	C23.347078,138.866272 24.543499,140.354950 27.966776,140.234314 
	C32.899483,140.060501 37.842216,140.171402 43.022598,140.413971 
	C46.141399,143.360062 49.344822,144.499802 53.606487,142.774963 
	C53.090042,139.620560 52.524776,136.832642 48.719582,136.217865 
	C48.703350,136.203583 48.434055,136.086044 48.560467,135.800781 
	C48.474831,135.181656 48.262787,134.847778 48.321465,134.321930 
	C48.840961,133.761536 49.089733,133.393158 49.781120,133.089066 
	C59.583473,133.085739 69.323486,131.812912 75.823547,141.530640 
	C76.396225,143.243530 76.847778,144.618256 77.265656,146.420563 
	C77.105705,148.506439 77.211281,150.223450 76.809036,151.811874 
	C75.670853,156.306412 73.017242,159.626831 68.410805,160.864105 
	C64.435303,161.931915 60.203022,161.465500 58.139584,157.824188 
	C56.606537,155.118851 56.190434,151.252594 56.696671,148.133896 
	C56.965015,146.480743 60.104252,144.839508 62.255306,144.141327 
	C63.300297,143.802155 65.736031,145.343842 66.278893,146.586090 
	C66.753700,147.672592 65.546410,149.569946 64.904037,151.030731 
	C64.655403,151.596146 63.916744,151.946045 63.401321,152.394135 
	C63.563847,152.795837 63.726368,153.197540 63.888893,153.599243 
	C65.228256,153.271088 67.267761,153.358078 67.760132,152.527710 
	C68.761963,150.838150 69.979172,147.944534 69.220627,146.820587 
	C67.648613,144.491302 65.060219,141.913147 62.496868,141.400040 
	C58.330677,140.566116 53.978466,144.934692 53.120781,149.428131 
	C51.456654,158.146515 60.143257,166.205338 68.632294,163.399948 
	C72.116508,162.248489 75.134407,159.686020 78.702728,157.564240 
	C80.228874,158.820557 82.003281,160.569687 84.045494,161.911102 
	C91.773827,166.987411 102.208023,162.231918 103.508492,153.128876 
	C104.262733,147.849335 100.695244,142.518478 95.640076,141.371185 
	C89.971497,140.084671 84.736397,144.861832 86.318268,150.159790 
	C86.752014,151.612503 88.466232,152.954605 89.922974,153.715088 
	C90.647049,154.093079 92.118408,153.039612 92.249199,152.992767 
	C90.815811,150.647171 88.587906,148.630844 88.920586,147.217072 
	C89.685852,143.964966 92.838432,143.247269 95.804230,144.218582 
	C99.635056,145.473175 101.137909,148.623337 100.842972,152.471420 
	C100.289627,159.690781 91.412758,163.868912 85.362305,159.816498 
	C80.445480,156.523346 78.735130,151.701187 79.117134,145.606171 
	C79.515511,143.315079 79.778572,141.416855 80.354065,139.473083 
	C82.613159,138.053101 84.559830,136.678650 86.918915,135.069183 
	C93.496605,134.246628 99.661880,133.659088 105.953491,133.431030 
	C105.672775,134.827911 105.173782,135.839890 104.878693,136.908218 
	C104.338852,138.862564 103.919556,140.850220 103.449982,142.823975 
	C105.621628,142.732849 107.832085,142.866196 109.955956,142.498871 
	C113.284149,141.923279 116.520302,140.752853 119.858467,140.316238 
	C122.774704,139.934830 125.800743,140.417969 128.728348,140.082840 
	C129.577286,139.985672 130.254166,138.385544 131.007919,137.069214 
	C130.660110,132.610397 130.314285,128.556732 130.339844,124.412575 
	C131.129532,123.215668 131.547867,122.109261 132.049713,120.833969 
	C132.133209,120.665085 132.218948,120.298180 132.481934,120.041061 
	C133.722672,116.541283 134.700424,113.298630 135.678177,110.055977 
	C135.067795,109.699409 134.457397,109.342850 133.847015,108.986290 
	C132.434906,109.842850 131.022797,110.699409 129.377487,111.703339 
	C128.760071,112.242844 128.375854,112.634979 127.643387,113.062088 
	C126.830315,113.083740 126.365471,113.070412 125.943298,112.587173 
	C126.744133,105.196335 127.502304,98.275406 128.519958,91.131775 
	C133.289581,85.148827 139.924194,83.044273 145.313370,85.664352 
	C150.601639,88.235397 152.825592,94.063866 151.369293,101.503136 
	C151.274261,101.988556 151.266754,102.491127 151.011444,103.287064 
	C147.941925,107.138077 144.012146,108.329720 140.168137,106.417099 
	C138.123947,105.400002 136.593979,102.398628 135.916702,99.988136 
	C135.580566,98.791794 137.812790,95.533707 138.674973,95.608459 
	C140.725708,95.786270 142.652512,97.393417 144.672684,98.445633 
	C146.149643,95.574799 144.532349,92.465858 140.562317,92.165367 
	C136.870605,91.885941 133.304550,95.178352 132.951492,99.192139 
	C132.517151,104.130058 135.428436,108.222191 140.346588,109.586777 
	C145.798233,111.099388 150.079849,108.884285 153.225693,102.800995 
	C153.938553,102.055984 154.469269,101.527985 155.000000,101.000000 
	C155.000000,122.300079 155.000000,143.600159 155.000000,164.950119 
	C103.779984,164.950119 52.559906,164.950119 1.000000,164.950119 
	C1.000000,144.313675 1.000000,123.625496 1.268883,102.667648 
	C3.344794,104.318253 4.893394,106.612175 7.014110,108.078880 
	C11.089164,110.897224 15.565588,110.897652 19.535028,107.822540 
	C23.571421,104.695572 23.250650,100.141258 21.882107,95.991570 
	C21.354965,94.393181 18.888895,92.645508 17.146099,92.458519 
	C15.402572,92.271446 13.110047,93.595474 11.740236,94.947929 
	C10.976909,95.701584 11.603104,97.862595 11.603104,98.228340 
	C14.316333,97.210281 16.981037,95.200424 18.482733,95.855721 
	C21.679239,97.250603 21.815294,100.742615 20.057184,103.539734 
	C19.109474,105.047531 17.169817,106.388206 15.423300,106.857498 
	C8.359814,108.755470 2.151431,102.168190 3.581707,94.630257 
	C3.898339,92.961525 3.866459,91.226669 3.995055,89.522263 
z"/>
<path fill="#8E430F" opacity="1.000000" stroke="none" 
	d="
M151.158554,75.993065 
	C151.111893,72.067635 151.769928,67.944763 150.746826,64.292892 
	C150.159485,62.196537 146.971741,59.738808 144.725006,59.486187 
	C142.186676,59.200787 138.909470,60.627731 136.828201,62.360535 
	C134.197632,64.550667 134.973160,69.128723 137.649002,70.587639 
	C141.489304,72.681427 142.868134,70.016541 143.719360,66.527214 
	C144.160583,66.702164 144.601822,66.877106 145.043045,67.052055 
	C145.043045,68.449486 145.610031,70.347107 144.916779,71.132942 
	C143.729050,72.479286 141.800171,73.831619 140.099670,73.945602 
	C134.334976,74.331970 130.442352,66.996758 134.196503,62.017689 
	C136.231247,59.319027 140.114563,57.229122 143.503906,56.542461 
	C147.433197,55.746407 150.778366,58.232944 152.533279,62.190857 
	C153.061356,63.381828 153.782959,64.486992 154.707947,65.815735 
	C155.000000,68.041664 155.000000,70.083336 154.767365,72.744949 
	C153.868652,74.340240 153.202591,75.315590 152.193115,76.211395 
	C151.619354,76.085594 151.388962,76.039330 151.158554,75.993065 
z"/>
<path fill="#8E430F" opacity="1.000000" stroke="none" 
	d="
M3.670026,89.596390 
	C3.866459,91.226669 3.898339,92.961525 3.581707,94.630257 
	C2.151431,102.168190 8.359814,108.755470 15.423300,106.857498 
	C17.169817,106.388206 19.109474,105.047531 20.057184,103.539734 
	C21.815294,100.742615 21.679239,97.250603 18.482733,95.855721 
	C16.981037,95.200424 14.316333,97.210281 11.603104,98.228340 
	C11.603104,97.862595 10.976909,95.701584 11.740236,94.947929 
	C13.110047,93.595474 15.402572,92.271446 17.146099,92.458519 
	C18.888895,92.645508 21.354965,94.393181 21.882107,95.991570 
	C23.250650,100.141258 23.571421,104.695572 19.535028,107.822540 
	C15.565588,110.897652 11.089164,110.897224 7.014110,108.078880 
	C4.893394,106.612175 3.344794,104.318253 1.268883,102.198990 
	C1.000000,98.969406 1.000000,95.938812 1.000000,92.454109 
	C1.781666,91.223511 2.563332,90.447014 3.670026,89.596390 
z"/>
<path fill="#8A4210" opacity="1.000000" stroke="none" 
	d="
M155.000000,100.562500 
	C154.469269,101.527985 153.938553,102.055984 152.921371,102.795624 
	C152.029449,103.000092 151.623993,102.992905 151.218536,102.985718 
	C151.266754,102.491127 151.274261,101.988556 151.369293,101.503136 
	C152.825592,94.063866 150.601639,88.235397 145.313370,85.664352 
	C139.924194,83.044273 133.289581,85.148827 128.289093,90.864182 
	C127.466751,90.488037 127.134781,90.156807 126.994659,89.557434 
	C128.886475,87.299576 130.586441,85.309845 132.218262,83.399857 
	C131.424255,81.807762 130.716980,80.389603 130.009720,78.971443 
	C136.055817,82.772362 142.452179,81.874031 148.878204,81.071449 
	C148.803589,82.531448 148.416367,83.493027 148.737473,84.034904 
	C150.736740,87.408882 152.894669,90.688858 155.000000,94.000000 
	C155.000000,96.041664 155.000000,98.083336 155.000000,100.562500 
z"/>
<path fill="#EB6402" opacity="1.000000" stroke="none" 
	d="
M155.000000,93.531471 
	C152.894669,90.688858 150.736740,87.408882 148.737473,84.034904 
	C148.416367,83.493027 148.803589,82.531448 149.154556,81.343491 
	C149.445740,80.923103 149.810410,80.635239 150.153259,80.338196 
	C150.798325,79.391609 151.100525,78.742050 151.585724,77.896332 
	C152.024658,77.230423 152.280579,76.760674 152.536514,76.290932 
	C153.202591,75.315590 153.868652,74.340240 154.767365,73.182449 
	C155.000000,79.687645 155.000000,86.375290 155.000000,93.531471 
z"/>
<path fill="#8A4210" opacity="1.000000" stroke="none" 
	d="
M1.000000,65.449982 
	C1.244930,64.770294 1.526553,64.601990 2.387075,64.697769 
	C3.145848,65.081337 3.362415,65.262215 3.578982,65.443085 
	C3.546063,67.880104 3.513144,70.317131 3.247939,73.412872 
	C2.869225,74.249908 2.722798,74.428207 2.576369,74.606514 
	C2.220977,74.486038 1.865586,74.365562 1.255097,74.122543 
	C1.000000,71.299988 1.000000,68.599968 1.000000,65.449982 
z"/>
<path fill="#823F11" opacity="1.000000" stroke="none" 
	d="
M126.802811,89.825569 
	C127.134781,90.156807 127.466751,90.488037 128.029602,91.086876 
	C127.502304,98.275406 126.744133,105.196335 125.857750,112.770348 
	C126.483566,113.291328 127.237602,113.159225 127.991638,113.027115 
	C128.375854,112.634979 128.760071,112.242844 129.618652,111.933685 
	C130.258240,112.165421 130.423477,112.314163 130.401459,112.751694 
	C128.189240,116.514648 124.049423,119.593422 127.744049,124.497620 
	C125.477707,128.981842 121.591743,132.527756 116.935341,134.231323 
	C116.346565,134.446716 115.674881,134.435501 114.676407,134.386627 
	C112.541962,134.502884 110.772705,134.761810 108.856018,134.721893 
	C107.748108,133.972549 106.787636,133.522049 105.827164,133.071533 
	C99.661880,133.659088 93.496605,134.246628 86.568176,134.828568 
	C81.383095,134.061157 76.961143,133.299332 72.539200,132.537521 
	C72.376160,133.065750 72.213112,133.593994 72.050072,134.122223 
	C73.737793,136.027710 75.425514,137.933212 76.891747,140.078186 
	C76.347649,140.609283 76.025032,140.900879 75.702423,141.192490 
	C69.323486,131.812912 59.583473,133.085739 49.524643,133.302795 
	C48.567284,133.806122 48.309013,134.160019 48.050743,134.513916 
	C48.262787,134.847778 48.474831,135.181656 48.079239,135.620560 
	C45.927467,135.171997 44.383331,134.618408 41.589146,133.616653 
	C42.852173,136.279907 43.458336,137.558075 43.864559,139.069962 
	C43.369972,139.589386 43.075321,139.875076 42.780670,140.160782 
	C37.842216,140.171402 32.899483,140.060501 27.966776,140.234314 
	C24.543499,140.354950 23.347078,138.866272 23.239183,135.571930 
	C23.057720,130.031342 22.535700,124.501930 22.466488,118.568634 
	C24.888968,119.414085 27.001902,120.658730 30.388191,122.653442 
	C29.613422,119.531990 29.202511,117.876472 29.038502,116.017303 
	C29.859039,115.545647 30.432676,115.277634 31.317131,115.009247 
	C32.042377,115.009743 32.456802,115.010597 32.924839,115.458145 
	C32.940712,118.601860 32.902973,121.298889 32.583374,124.104477 
	C31.810963,124.564064 31.320419,124.915092 30.545347,125.136292 
	C28.958961,124.567375 27.657106,124.128311 25.962959,123.556931 
	C25.962959,128.042221 25.840561,131.802444 26.058399,135.542862 
	C26.106327,136.365829 27.324272,137.752350 28.068356,137.796997 
	C31.897015,138.026657 35.746841,137.903458 39.589275,137.903458 
	C39.809170,137.255447 40.029064,136.607437 40.248962,135.959442 
	C38.772293,135.033508 37.338806,134.027206 35.806843,133.204208 
	C34.264378,132.375549 32.624016,131.729126 31.393808,130.989700 
	C32.250801,130.951553 32.740524,130.926544 33.683807,130.928436 
	C61.756435,130.976135 89.376884,130.860184 116.993347,131.138763 
	C122.210190,131.191376 123.374756,129.469727 123.356110,124.589012 
	C123.249390,96.647797 123.360130,68.704445 123.644035,40.764328 
	C123.689957,36.244972 122.149467,35.166363 117.884384,35.187759 
	C89.768990,35.328831 61.652401,35.231152 33.114708,35.167076 
	C32.134178,35.081360 31.575148,35.039864 31.143902,34.648621 
	C32.793331,33.887779 34.408730,33.675159 35.811554,33.012516 
	C37.368187,32.277222 38.730766,31.131124 40.806519,29.743679 
	C39.080418,28.857162 38.678528,28.511019 38.234013,28.442873 
	C26.867008,26.700274 24.045595,29.361591 26.136900,40.827595 
	C26.695339,43.889343 26.031752,45.816509 24.124100,47.564034 
	C23.701834,46.858185 23.449633,46.461475 23.197433,46.064766 
	C23.217640,41.900780 23.247169,37.736813 23.256014,33.572803 
	C23.271917,26.086626 23.267019,26.120670 30.525236,26.059246 
	C34.682247,26.024065 38.838142,25.856813 43.516552,26.073252 
	C44.096329,26.698238 44.154099,26.998997 44.095886,27.606079 
	C43.354832,29.214924 42.729752,30.517441 41.820503,32.412098 
	C48.398468,30.769100 50.506153,28.133615 50.342453,22.790909 
	C53.366295,23.309095 53.754635,25.044830 52.351189,27.415401 
	C51.295574,29.198450 50.053883,30.871338 48.380291,33.358105 
	C56.283279,34.132992 63.334892,34.990986 70.524483,31.002773 
	C71.411903,31.414291 71.711327,31.721977 72.002396,32.308044 
	C75.722343,33.151833 79.450645,33.717236 83.178947,34.282639 
	C83.266525,33.763996 83.354095,33.245354 83.441673,32.726707 
	C82.164886,30.856617 80.888107,28.986525 80.023636,27.049973 
	C80.711121,26.941145 80.986298,26.898773 81.261482,26.856400 
	C88.107819,35.900551 97.640434,32.882694 107.079926,32.005722 
	C107.766510,31.224277 107.960114,30.933624 108.461548,30.809414 
	C110.487541,31.536003 112.205704,32.096146 114.617256,32.882339 
	C113.455978,27.546143 109.895927,26.302454 106.437073,24.947519 
	C107.442062,24.595423 108.485008,23.858862 109.445869,23.953724 
	C115.606026,24.561888 121.751587,25.325399 127.894104,26.099985 
	C129.686844,26.326054 132.888031,25.493303 130.062317,29.060856 
	C125.213516,28.608456 121.026039,28.392763 116.767456,28.173410 
	C116.597313,32.769653 118.957443,33.275284 121.650902,33.066677 
	C124.926826,32.812965 125.866882,34.241402 126.118240,37.404064 
	C126.269478,39.307014 128.018112,41.083008 128.852234,43.133163 
	C128.367813,43.613930 128.080032,43.877586 127.513809,44.263092 
	C127.518333,46.529018 127.801323,48.673088 128.061127,51.230186 
	C128.007599,52.194992 127.977242,52.746773 127.946869,53.298553 
	C127.425926,53.633255 126.460243,53.954681 126.449806,54.304615 
	C126.246651,61.111866 124.546112,68.074005 128.335510,75.207932 
	C124.253883,80.130234 125.917397,85.022018 126.802811,89.825569 
z"/>
<path fill="#93450E" opacity="1.000000" stroke="none" 
	d="
M81.192780,26.474281 
	C80.986298,26.898773 80.711121,26.941145 79.697235,27.004501 
	C76.642601,28.693546 74.326668,30.361603 72.010742,32.029663 
	C71.711327,31.721977 71.411903,31.414291 70.869797,30.891167 
	C74.991196,26.703794 77.978455,22.134506 77.020042,15.867901 
	C76.279190,11.023870 73.687401,7.129120 69.025688,6.093220 
	C66.017715,5.424804 62.126831,6.148422 59.357811,7.617213 
	C55.613174,9.603510 54.924492,13.715223 56.312069,17.678288 
	C57.702282,21.648878 60.663715,23.363716 65.406143,22.794514 
	C65.949631,23.525572 66.014847,23.845270 66.080063,24.164968 
	C61.998383,27.125996 58.734188,24.827662 55.932404,22.179073 
	C52.401363,18.841099 52.047966,14.513962 53.872707,10.180485 
	C57.259621,2.137091 66.860649,-0.084612 73.880150,5.439577 
	C75.292793,6.551297 76.606400,7.788869 78.006111,9.003508 
	C80.642723,7.077888 82.906410,5.114284 85.451096,3.633591 
	C90.118881,0.917522 95.919830,2.127191 99.979324,6.356641 
	C103.971924,10.516400 104.749123,15.862639 102.046700,20.578077 
	C99.851433,24.408594 94.734749,26.365541 90.850410,24.842384 
	C87.035950,23.346624 85.501671,20.505291 86.152512,16.523539 
	C86.771049,12.739335 89.334740,11.781315 93.141029,14.246791 
	C92.185455,14.803883 91.222580,15.091965 90.697136,15.736595 
	C89.938507,16.667307 88.838753,18.042145 89.077988,18.891216 
	C89.418983,20.101469 90.651924,21.502157 91.835411,21.955004 
	C96.384186,23.695524 101.131454,19.502098 100.797180,14.260136 
	C100.330772,6.946025 91.852318,2.722196 85.505219,6.641934 
	C79.287338,10.481874 77.898560,16.647392 81.192780,26.474281 
z"/>
<path fill="#8A4210" opacity="1.000000" stroke="none" 
	d="
M32.871227,115.011452 
	C32.456802,115.010597 32.042377,115.009743 31.312063,114.650696 
	C30.979408,113.813881 30.962643,113.335251 30.945877,112.856621 
	C30.375387,104.971962 31.902601,96.716743 27.114769,89.290390 
	C27.887461,88.971260 28.387405,88.987015 29.176674,89.078323 
	C31.652262,85.593834 31.477886,79.372017 28.941900,76.818558 
	C28.511852,76.135300 28.265842,75.654114 28.019833,75.172928 
	C28.943462,68.169945 29.867090,61.166958 31.037403,53.506149 
	C31.814026,52.561802 32.343964,52.275272 32.940948,52.454372 
	C32.962406,73.617149 32.916817,94.314301 32.871227,115.011452 
z"/>
<path fill="#8E430F" opacity="1.000000" stroke="none" 
	d="
M2.815131,62.910854 
	C5.268538,60.854374 7.433856,58.155052 10.244410,56.895523 
	C14.232745,55.108177 18.912262,56.325935 20.739973,60.023155 
	C22.301565,63.182045 22.109772,67.676437 21.318260,71.277847 
	C21.037918,72.553421 16.566845,73.835861 14.245897,73.496201 
	C11.451508,73.087257 10.108803,70.529991 13.165384,66.386749 
	C13.270102,67.061272 13.131302,68.023300 13.524939,68.356712 
	C14.732728,69.379707 16.622494,71.177414 17.376270,70.822807 
	C18.877401,70.116608 20.850437,68.072273 20.722198,66.768181 
	C20.505768,64.567169 19.309879,61.469467 17.608500,60.647324 
	C15.237770,59.501743 11.928261,59.615494 9.203100,60.139595 
	C7.531131,60.461151 6.200419,62.557133 4.247598,63.841560 
	C3.457532,63.521500 3.136331,63.216179 2.815131,62.910854 
z"/>
<path fill="#EB6402" opacity="1.000000" stroke="none" 
	d="
M129.048904,42.916054 
	C128.018112,41.083008 126.269478,39.307014 126.118240,37.404064 
	C125.866882,34.241402 124.926826,32.812965 121.650902,33.066677 
	C118.957443,33.275284 116.597313,32.769653 116.767456,28.173410 
	C121.026039,28.392763 125.213516,28.608456 129.691650,29.134399 
	C129.994965,33.185543 130.007599,36.926434 129.902069,41.368317 
	C129.538910,42.351559 129.293915,42.633804 129.048904,42.916054 
z"/>
<path fill="#E46103" opacity="1.000000" stroke="none" 
	d="
M126.994659,89.557434 
	C125.917397,85.022018 124.253883,80.130234 128.582214,75.538864 
	C129.131653,75.629051 129.481384,76.075653 129.666534,76.857292 
	C129.681503,77.796127 129.861053,78.399918 130.040588,79.003716 
	C130.040588,79.003716 129.996399,79.012093 130.003052,78.991768 
	C130.716980,80.389603 131.424255,81.807762 132.218262,83.399857 
	C130.586441,85.309845 128.886475,87.299576 126.994659,89.557434 
z"/>
<path fill="#8E430F" opacity="1.000000" stroke="none" 
	d="
M128.852234,43.133163 
	C129.293915,42.633804 129.538910,42.351559 129.879639,41.799271 
	C133.189896,46.044960 135.964752,50.683468 134.334793,57.954983 
	C131.840790,56.262383 130.072113,55.062038 128.125153,53.580124 
	C127.977242,52.746773 128.007599,52.194992 128.323273,51.422649 
	C129.653763,52.041309 130.698944,52.880531 131.744141,53.719753 
	C132.245712,53.332447 132.747284,52.945145 133.248840,52.557838 
	C131.429993,49.752304 129.611130,46.946774 127.792267,44.141239 
	C128.080032,43.877586 128.367813,43.613930 128.852234,43.133163 
z"/>
<path fill="#823F11" opacity="1.000000" stroke="none" 
	d="
M32.873898,51.988747 
	C32.343964,52.275272 31.814026,52.561802 31.067265,53.062935 
	C29.108873,54.096809 27.367308,54.916073 25.310043,55.602013 
	C24.994343,55.468689 24.980465,54.977066 24.970667,54.694969 
	C24.954391,54.224812 24.947914,54.036747 25.186115,53.621449 
	C27.915756,50.674351 31.458588,48.396152 28.892344,43.731430 
	C28.638391,43.269817 30.182295,41.819134 31.109118,41.021645 
	C31.840113,41.479012 32.353737,41.742249 32.919964,42.456543 
	C32.939674,45.934643 32.906784,48.961693 32.873898,51.988747 
z"/>
<path fill="#8A4210" opacity="1.000000" stroke="none" 
	d="
M24.360382,85.109818 
	C19.250738,84.956520 14.141095,84.803230 8.749516,84.329147 
	C8.562361,83.054779 8.657142,82.101219 8.754247,81.124275 
	C12.920065,81.124275 17.057030,81.124275 21.789688,81.246597 
	C22.680182,81.612091 22.974979,81.855270 23.306730,82.631371 
	C23.682583,83.812798 24.021482,84.461311 24.360382,85.109818 
z"/>
<path fill="#98470D" opacity="1.000000" stroke="none" 
	d="
M66.371201,23.967106 
	C66.014847,23.845270 65.949631,23.525572 65.785843,22.722919 
	C67.535500,18.830061 67.366463,15.974333 62.782524,14.331452 
	C63.109768,13.813352 63.437012,13.295251 63.764256,12.777150 
	C65.337616,13.254926 67.518600,13.241828 68.373474,14.300033 
	C71.248611,17.859009 69.824905,21.070044 66.371201,23.967106 
z"/>
<path fill="#E46103" opacity="1.000000" stroke="none" 
	d="
M106.459473,24.955906 
	C109.895927,26.302454 113.455978,27.546143 114.617256,32.882339 
	C112.205704,32.096146 110.487541,31.536003 108.395996,30.582737 
	C107.628593,29.732845 107.234581,29.276077 106.710709,28.440338 
	C106.563629,27.030048 106.546417,25.998728 106.529205,24.967409 
	C106.529205,24.967409 106.481873,24.964291 106.459473,24.955906 
z"/>
<path fill="#E46103" opacity="1.000000" stroke="none" 
	d="
M50.208817,22.816399 
	C50.506153,28.133615 48.398468,30.769100 41.820503,32.412098 
	C42.729752,30.517441 43.354832,29.214924 44.367859,27.472847 
	C45.603397,26.485434 46.450985,25.937578 47.622021,25.253139 
	C48.473804,24.396173 49.002140,23.675789 49.530479,22.955402 
	C49.709274,22.904243 49.890842,22.866405 50.208817,22.816399 
z"/>
<path fill="#8E430F" opacity="1.000000" stroke="none" 
	d="
M23.269779,82.098450 
	C22.974979,81.855270 22.680182,81.612091 22.183304,81.165321 
	C23.834122,79.171417 25.687019,77.381104 27.779873,75.381859 
	C28.265842,75.654114 28.511852,76.135300 28.775021,77.109917 
	C26.951380,79.101715 25.110579,80.600082 23.269779,82.098450 
z"/>
<path fill="#98470D" opacity="1.000000" stroke="none" 
	d="
M24.941435,53.848682 
	C24.947914,54.036747 24.954391,54.224812 24.605724,54.698605 
	C23.279478,55.004452 22.308378,55.024567 21.337278,55.044685 
	C21.799610,52.247066 22.261940,49.449444 22.960854,46.358295 
	C23.449633,46.461475 23.701834,46.858185 24.052731,47.861374 
	C24.414761,50.261459 24.678097,52.055073 24.941435,53.848682 
z"/>
<path fill="#823F11" opacity="1.000000" stroke="none" 
	d="
M106.283234,24.675364 
	C106.546417,25.998728 106.563629,27.030048 106.214279,28.500107 
	C105.520226,28.983160 105.192741,29.027472 104.865265,29.071785 
	C102.347076,24.703920 102.411423,24.446516 106.283234,24.675364 
z"/>
<path fill="#93450E" opacity="1.000000" stroke="none" 
	d="
M104.971939,29.369141 
	C105.192741,29.027472 105.520226,28.983160 106.344139,28.879078 
	C107.234581,29.276077 107.628593,29.732845 108.088165,30.416292 
	C107.960114,30.933624 107.766510,31.224277 107.405861,31.714622 
	C106.518753,31.165041 105.798691,30.415768 104.971939,29.369141 
z"/>
<path fill="#8A4210" opacity="1.000000" stroke="none" 
	d="
M21.374073,55.343510 
	C22.308378,55.024567 23.279478,55.004452 24.615520,54.980698 
	C24.980465,54.977066 24.994343,55.468689 24.998230,55.714500 
	C23.805035,55.854321 22.607950,55.748329 21.374073,55.343510 
z"/>
<path fill="#98470D" opacity="1.000000" stroke="none" 
	d="
M47.298573,25.389725 
	C46.450985,25.937578 45.603397,26.485434 44.483837,27.166519 
	C44.154099,26.998997 44.096329,26.698238 43.962059,25.942284 
	C44.390129,25.004608 44.894703,24.522127 45.880867,24.231033 
	C46.674492,24.744854 46.986534,25.067289 47.298573,25.389725 
z"/>
<path fill="#823F11" opacity="1.000000" stroke="none" 
	d="
M47.622021,25.253141 
	C46.986534,25.067289 46.674492,24.744854 46.145981,24.166033 
	C46.879440,23.613861 47.829365,23.318073 49.154884,22.988846 
	C49.002140,23.675789 48.473804,24.396173 47.622021,25.253141 
z"/>
<path fill="#98470D" opacity="1.000000" stroke="none" 
	d="
M152.193115,76.211395 
	C152.280579,76.760674 152.024658,77.230423 151.216400,77.869476 
	C150.419281,78.019859 150.174484,78.000923 149.929688,77.981979 
	C150.227982,77.479485 150.526276,76.976982 150.991562,76.233772 
	C151.388962,76.039330 151.619354,76.085594 152.193115,76.211395 
z"/>
<path fill="#8A4210" opacity="1.000000" stroke="none" 
	d="
M130.101624,78.658432 
	C129.861053,78.399918 129.681503,77.796127 129.764984,77.054474 
	C130.072891,77.382126 130.117767,77.847633 130.101624,78.658432 
z"/>
<path fill="#8A4210" opacity="1.000000" stroke="none" 
	d="
M2.685649,63.129517 
	C3.136331,63.216179 3.457532,63.521500 3.997563,64.078415 
	C4.139109,64.611397 4.019429,64.873413 3.718168,65.279572 
	C3.362415,65.262215 3.145848,65.081337 2.617084,64.606918 
	C2.388647,63.991634 2.472407,63.669910 2.685649,63.129517 
z"/>
<path fill="#8A4210" opacity="1.000000" stroke="none" 
	d="
M149.780518,78.405708 
	C150.174484,78.000923 150.419281,78.019859 151.033386,78.065643 
	C151.100525,78.742050 150.798325,79.391609 150.237762,80.291245 
	C149.863403,79.970695 149.747391,79.400070 149.780518,78.405708 
z"/>
<path fill="#8A4210" opacity="1.000000" stroke="none" 
	d="
M3.255221,73.821838 
	C3.315506,74.009514 3.136224,74.446960 2.766656,74.745461 
	C2.722798,74.428207 2.869225,74.249908 3.255221,73.821838 
z"/>
<path fill="#8E430F" opacity="1.000000" stroke="none" 
	d="
M78.981819,145.999054 
	C78.735130,151.701187 80.445480,156.523346 85.362305,159.816498 
	C91.412758,163.868912 100.289627,159.690781 100.842972,152.471420 
	C101.137909,148.623337 99.635056,145.473175 95.804230,144.218582 
	C92.838432,143.247269 89.685852,143.964966 88.920586,147.217072 
	C88.587906,148.630844 90.815811,150.647171 92.249199,152.992767 
	C92.118408,153.039612 90.647049,154.093079 89.922974,153.715088 
	C88.466232,152.954605 86.752014,151.612503 86.318268,150.159790 
	C84.736397,144.861832 89.971497,140.084671 95.640076,141.371185 
	C100.695244,142.518478 104.262733,147.849335 103.508492,153.128876 
	C102.208023,162.231918 91.773827,166.987411 84.045494,161.911102 
	C82.003281,160.569687 80.228874,158.820557 78.702728,157.564240 
	C75.134407,159.686020 72.116508,162.248489 68.632294,163.399948 
	C60.143257,166.205338 51.456654,158.146515 53.120781,149.428131 
	C53.978466,144.934692 58.330677,140.566116 62.496868,141.400040 
	C65.060219,141.913147 67.648613,144.491302 69.220627,146.820587 
	C69.979172,147.944534 68.761963,150.838150 67.760132,152.527710 
	C67.267761,153.358078 65.228256,153.271088 63.888893,153.599243 
	C63.726368,153.197540 63.563847,152.795837 63.401321,152.394135 
	C63.916744,151.946045 64.655403,151.596146 64.904037,151.030731 
	C65.546410,149.569946 66.753700,147.672592 66.278893,146.586090 
	C65.736031,145.343842 63.300297,143.802155 62.255306,144.141327 
	C60.104252,144.839508 56.965015,146.480743 56.696671,148.133896 
	C56.190434,151.252594 56.606537,155.118851 58.139584,157.824188 
	C60.203022,161.465500 64.435303,161.931915 68.410805,160.864105 
	C73.017242,159.626831 75.670853,156.306412 76.809036,151.811874 
	C77.211281,150.223450 77.105705,148.506439 77.545792,146.421265 
	C78.233681,145.995956 78.607750,145.997498 78.981819,145.999054 
z"/>
<path fill="#93450E" opacity="1.000000" stroke="none" 
	d="
M151.011444,103.287064 
	C151.623993,102.992905 152.029449,103.000092 152.739227,103.012642 
	C150.079849,108.884285 145.798233,111.099388 140.346588,109.586777 
	C135.428436,108.222191 132.517151,104.130058 132.951492,99.192139 
	C133.304550,95.178352 136.870605,91.885941 140.562317,92.165367 
	C144.532349,92.465858 146.149643,95.574799 144.672684,98.445633 
	C142.652512,97.393417 140.725708,95.786270 138.674973,95.608459 
	C137.812790,95.533707 135.580566,98.791794 135.916702,99.988136 
	C136.593979,102.398628 138.123947,105.400002 140.168137,106.417099 
	C144.012146,108.329720 147.941925,107.138077 151.011444,103.287064 
z"/>
<path fill="#F46700" opacity="1.000000" stroke="none" 
	d="
M115.041603,134.529282 
	C115.674881,134.435501 116.346565,134.446716 116.935341,134.231323 
	C121.591743,132.527756 125.477707,128.981842 127.875732,124.474518 
	C128.851089,124.143265 129.312531,124.124344 129.844513,124.194122 
	C129.915054,124.282814 129.968475,124.503075 129.968475,124.503075 
	C130.314285,128.556732 130.660110,132.610397 130.545654,137.151581 
	C128.104233,137.751434 126.122665,137.962143 124.141960,137.954361 
	C120.683640,137.940750 116.780052,138.944077 115.021027,134.469574 
	C115.014412,134.491898 115.041603,134.529282 115.041603,134.529282 
z"/>
<path fill="#8A4210" opacity="1.000000" stroke="none" 
	d="
M115.027634,134.447235 
	C116.780052,138.944077 120.683640,137.940750 124.141960,137.954361 
	C126.122665,137.962143 128.104233,137.751434 130.547668,137.556732 
	C130.254166,138.385544 129.577286,139.985672 128.728348,140.082840 
	C125.800743,140.417969 122.774704,139.934830 119.858467,140.316238 
	C116.520302,140.752853 113.284149,141.923279 109.955956,142.498871 
	C107.832085,142.866196 105.621628,142.732849 103.449982,142.823975 
	C103.919556,140.850220 104.338852,138.862564 104.878693,136.908218 
	C105.173782,135.839890 105.672775,134.827911 105.953491,133.431030 
	C106.787636,133.522049 107.748108,133.972549 108.686287,135.009308 
	C107.813240,137.076050 106.962486,138.556534 105.707153,140.741074 
	C110.991486,140.474594 113.014572,137.467911 115.027634,134.447235 
z"/>
<path fill="#E46103" opacity="1.000000" stroke="none" 
	d="
M77.113228,139.838699 
	C75.425514,137.933212 73.737793,136.027710 72.050072,134.122223 
	C72.213112,133.593994 72.376160,133.065750 72.539200,132.537521 
	C76.961143,133.299332 81.383095,134.061157 86.155769,135.063568 
	C84.559830,136.678650 82.613159,138.053101 79.988037,139.542267 
	C78.577469,139.717545 77.845345,139.778122 77.113228,139.838699 
z"/>
<path fill="#E46103" opacity="1.000000" stroke="none" 
	d="
M23.306732,82.631371 
	C25.110579,80.600082 26.951380,79.101715 28.959061,77.311981 
	C31.477886,79.372017 31.652262,85.593834 29.044071,88.811615 
	C28.413204,88.130760 28.204258,87.792145 27.995312,87.453537 
	C27.589771,87.082634 27.184233,86.711731 26.269924,86.031021 
	C25.492979,85.644188 25.224802,85.567139 24.956625,85.490082 
	C24.743622,85.409157 24.553074,85.290871 24.372681,85.122520 
	C24.021482,84.461311 23.682583,83.812798 23.306732,82.631371 
z"/>
<path fill="#E46103" opacity="1.000000" stroke="none" 
	d="
M28.791599,116.220955 
	C29.202511,117.876472 29.613422,119.531990 30.388191,122.653442 
	C27.001902,120.658730 24.888968,119.414085 22.436010,118.157318 
	C21.777485,116.933105 21.458984,115.721016 21.377644,113.974808 
	C25.377048,110.831070 26.552439,114.898987 28.791599,116.220955 
z"/>
<path fill="#8A4210" opacity="1.000000" stroke="none" 
	d="
M43.022598,140.413971 
	C43.075321,139.875076 43.369972,139.589386 44.172787,139.276520 
	C46.110863,139.813019 47.540779,140.376709 50.149376,141.405045 
	C49.453999,138.860306 49.094906,137.546234 48.735817,136.232147 
	C52.524776,136.832642 53.090042,139.620560 53.606487,142.774963 
	C49.344822,144.499802 46.141399,143.360062 43.022598,140.413971 
z"/>
<path fill="#EB6402" opacity="1.000000" stroke="none" 
	d="
M48.719582,136.217865 
	C49.094906,137.546234 49.453999,138.860306 50.149376,141.405045 
	C47.540779,140.376709 46.110863,139.813019 44.372723,139.042786 
	C43.458336,137.558075 42.852173,136.279907 41.589146,133.616653 
	C44.383331,134.618408 45.927467,135.171997 47.952827,135.905823 
	C48.434055,136.086044 48.703350,136.203583 48.719582,136.217865 
z"/>
<path fill="#8E430F" opacity="1.000000" stroke="none" 
	d="
M129.851837,111.786316 
	C131.022797,110.699409 132.434906,109.842850 133.847015,108.986290 
	C134.457397,109.342850 135.067795,109.699409 135.678177,110.055977 
	C134.700424,113.298630 133.722672,116.541283 132.271667,119.805275 
	C131.491531,119.540184 131.184631,119.253754 130.989349,118.630920 
	C132.972137,113.751106 132.972137,113.751106 130.588699,112.462914 
	C130.423477,112.314163 130.258240,112.165421 129.851837,111.786316 
z"/>
<path fill="#8E430F" opacity="1.000000" stroke="none" 
	d="
M29.038502,116.017303 
	C26.552439,114.898987 25.377048,110.831070 21.364862,113.596344 
	C20.867237,109.743752 22.931379,109.354149 25.986305,110.709557 
	C27.439512,111.354301 28.810986,112.183266 30.582680,112.892700 
	C30.962643,113.335251 30.979408,113.813881 31.001244,114.651062 
	C30.432676,115.277634 29.859039,115.545647 29.038502,116.017303 
z"/>
<path fill="#8A4210" opacity="1.000000" stroke="none" 
	d="
M76.891747,140.078186 
	C77.845345,139.778122 78.577469,139.717545 79.675613,139.587799 
	C79.778572,141.416855 79.515511,143.315079 79.117134,145.606171 
	C78.607750,145.997498 78.233681,145.995956 77.579468,145.993698 
	C76.847778,144.618256 76.396225,143.243530 75.823547,141.530640 
	C76.025032,140.900879 76.347649,140.609283 76.891747,140.078186 
z"/>
<path fill="#823F11" opacity="1.000000" stroke="none" 
	d="
M131.966202,121.002853 
	C131.547867,122.109261 131.129532,123.215668 130.339844,124.412575 
	C129.968475,124.503075 129.915054,124.282814 129.763153,123.800186 
	C129.694046,122.537483 129.776855,121.757423 130.210770,120.981644 
	C131.029999,120.991577 131.498093,120.997215 131.966202,121.002853 
z"/>
<path fill="#8A4210" opacity="1.000000" stroke="none" 
	d="
M127.643394,113.062096 
	C127.237602,113.159225 126.483566,113.291328 125.815079,113.240265 
	C126.365471,113.070412 126.830315,113.083740 127.643394,113.062096 
z"/>
<path fill="#8A4210" opacity="1.000000" stroke="none" 
	d="
M132.049713,120.833969 
	C131.498093,120.997215 131.029999,120.991577 130.299316,120.710464 
	C130.317078,119.945770 130.597412,119.456543 130.877747,118.967316 
	C131.184631,119.253754 131.491531,119.540184 132.008682,120.062393 
	C132.218948,120.298180 132.133209,120.665085 132.049713,120.833969 
z"/>
<path fill="#8E430F" opacity="1.000000" stroke="none" 
	d="
M27.667770,87.587830 
	C28.204258,87.792145 28.413204,88.130760 28.754751,88.736069 
	C28.387405,88.987015 27.887461,88.971260 27.008247,88.924538 
	C26.866064,88.503082 27.103144,88.112595 27.667770,87.587830 
z"/>
<path fill="#8A4210" opacity="1.000000" stroke="none" 
	d="
M24.737070,85.717773 
	C25.224802,85.567139 25.492979,85.644188 26.157415,85.856941 
	C25.874956,85.976929 25.196236,85.961197 24.737070,85.717773 
z"/>
<path fill="#8A4210" opacity="1.000000" stroke="none" 
	d="
M48.321465,134.321930 
	C48.309013,134.160019 48.567284,133.806122 49.082031,133.238495 
	C49.089733,133.393158 48.840961,133.761536 48.321465,134.321930 
z"/>
<path fill="#F56700" opacity="1.000000" stroke="none" 
	d="
M32.940948,52.454369 
	C32.906784,48.961693 32.939674,45.934643 32.987602,42.031715 
	C33.180496,39.174324 33.358349,37.192810 33.536201,35.211296 
	C61.652401,35.231152 89.768990,35.328831 117.884384,35.187759 
	C122.149467,35.166363 123.689957,36.244972 123.644035,40.764328 
	C123.360130,68.704445 123.249390,96.647797 123.356110,124.589012 
	C123.374756,129.469727 122.210190,131.191376 116.993347,131.138763 
	C89.376884,130.860184 61.756435,130.976135 33.648731,130.498749 
	C33.061810,128.026764 32.963524,126.011345 32.865238,123.995918 
	C32.902973,121.298889 32.940712,118.601860 32.924839,115.458145 
	C32.916817,94.314301 32.962406,73.617149 32.940948,52.454369 
M81.088661,60.089916 
	C76.127960,60.119343 71.167267,60.148769 65.431496,60.126427 
	C64.913574,60.111076 64.395645,60.095730 63.044613,59.949711 
	C58.792000,59.177124 58.046574,61.473507 58.070240,65.109322 
	C58.180611,82.065781 58.134052,99.023415 58.090668,115.980492 
	C58.086060,117.782219 57.771183,119.587746 57.534004,121.382759 
	C57.357704,122.717003 57.074181,124.037071 56.838413,125.363464 
	C58.277504,125.527267 59.727131,125.879135 61.152561,125.799225 
	C62.444046,125.726837 63.709137,125.183670 65.811569,125.010323 
	C71.945572,125.270676 78.078445,125.634239 84.214561,125.701340 
	C85.393585,125.714226 86.585335,124.562782 87.771210,123.948479 
	C86.492500,123.285835 85.226189,122.081871 83.932976,122.052231 
	C77.606407,121.907272 71.272667,122.075294 65.026680,122.035805 
	C65.026680,122.035805 65.075905,121.916565 65.261612,121.270996 
	C65.628235,120.707436 65.994850,120.143875 67.249435,119.647865 
	C73.217331,119.679192 79.190697,119.566856 85.151161,119.793625 
	C88.961807,119.938606 90.524536,118.633209 90.378418,114.662086 
	C90.134727,108.039307 90.415718,101.398605 90.262138,94.770401 
	C90.206451,92.367195 89.537933,89.978180 89.081467,87.027039 
	C89.037537,86.654327 88.993607,86.281609 89.565544,85.327194 
	C89.794472,77.822327 90.120979,70.317505 90.124352,62.812531 
	C90.124756,61.910927 88.499062,60.495758 87.403259,60.225273 
	C85.709785,59.807255 83.823196,60.171619 81.088661,60.089916 
M92.352036,62.167328 
	C92.330627,79.956100 92.338478,97.745026 92.248856,115.533455 
	C92.238274,117.632866 92.098000,119.900742 91.300758,121.787506 
	C90.098808,124.632019 91.213127,125.577431 93.711632,125.583679 
	C95.748970,125.588783 97.787430,125.145958 99.109848,124.987488 
	C98.757576,119.740463 98.225647,115.227638 98.193085,110.711220 
	C98.082817,95.416771 98.159195,80.121040 98.137779,64.825836 
	C98.134590,62.545139 98.589554,59.886398 94.491486,59.567558 
	C93.788101,60.133339 93.084717,60.699123 92.352036,62.167328 
M69.107933,45.568520 
	C66.673981,48.453518 64.709213,51.876266 60.194241,52.101620 
	C59.515884,52.135479 58.176842,54.394478 58.452919,54.880810 
	C59.033806,55.904110 60.474731,57.054527 61.578365,57.070522 
	C72.557327,57.229610 83.540749,57.243393 94.518913,57.059666 
	C95.702881,57.039848 96.861595,55.511894 98.032028,54.683514 
	C96.981468,53.677147 96.022316,52.546822 94.861122,51.690468 
	C92.515366,49.960529 89.525810,48.818344 87.748329,46.655758 
	C82.083817,39.763947 76.293442,39.069633 69.107933,45.568520 
z"/>
<path fill="#EB6402" opacity="1.000000" stroke="none" 
	d="
M25.186115,53.621449 
	C24.678097,52.055073 24.414761,50.261459 24.222795,48.170509 
	C26.031752,45.816509 26.695339,43.889343 26.136900,40.827595 
	C24.045595,29.361591 26.867008,26.700274 38.234013,28.442873 
	C38.678528,28.511019 39.080418,28.857162 40.806519,29.743679 
	C38.730766,31.131124 37.368187,32.277222 35.811554,33.012516 
	C34.408730,33.675159 32.793331,33.887779 31.088120,35.063755 
	C30.900286,37.494926 30.896017,39.161221 30.891748,40.827515 
	C30.182295,41.819134 28.638391,43.269817 28.892344,43.731430 
	C31.458588,48.396152 27.915756,50.674351 25.186115,53.621449 
z"/>
<path fill="#EB6402" opacity="1.000000" stroke="none" 
	d="
M31.026541,131.002853 
	C32.624016,131.729126 34.264378,132.375549 35.806843,133.204208 
	C37.338806,134.027206 38.772293,135.033508 40.248962,135.959442 
	C40.029064,136.607437 39.809170,137.255447 39.589275,137.903458 
	C35.746841,137.903458 31.897015,138.026657 28.068356,137.796997 
	C27.324272,137.752350 26.106327,136.365829 26.058399,135.542862 
	C25.840561,131.802444 25.962959,128.042221 25.962959,123.556931 
	C27.657106,124.128311 28.958961,124.567375 30.539371,125.543182 
	C30.887463,127.720894 30.957003,129.361877 31.026541,131.002853 
z"/>
<path fill="#E46103" opacity="1.000000" stroke="none" 
	d="
M72.002396,32.308044 
	C74.326668,30.361603 76.642601,28.693546 79.284927,27.070961 
	C80.888107,28.986525 82.164886,30.856617 83.441673,32.726707 
	C83.354095,33.245354 83.266525,33.763996 83.178947,34.282639 
	C79.450645,33.717236 75.722343,33.151833 72.002396,32.308044 
z"/>
<path fill="#E46103" opacity="1.000000" stroke="none" 
	d="
M130.989349,118.630920 
	C130.597412,119.456543 130.317078,119.945770 129.948212,120.706177 
	C129.776855,121.757423 129.694046,122.537483 129.692627,123.711487 
	C129.312531,124.124344 128.851089,124.143265 128.257950,124.185287 
	C124.049423,119.593422 128.189240,116.514648 130.401459,112.751694 
	C132.972137,113.751106 132.972137,113.751106 130.989349,118.630920 
z"/>
<path fill="#E46103" opacity="1.000000" stroke="none" 
	d="
M127.513809,44.263092 
	C129.611130,46.946774 131.429993,49.752304 133.248840,52.557838 
	C132.747284,52.945145 132.245712,53.332447 131.744141,53.719753 
	C130.698944,52.880531 129.653763,52.041309 128.346436,51.009621 
	C127.801323,48.673088 127.518333,46.529018 127.513809,44.263092 
z"/>
<path fill="#EB6402" opacity="1.000000" stroke="none" 
	d="
M115.021027,134.469574 
	C113.014572,137.467911 110.991486,140.474594 105.707153,140.741074 
	C106.962486,138.556534 107.813240,137.076050 108.833725,135.308136 
	C110.772705,134.761810 112.541962,134.502884 114.676407,134.386627 
	C115.041603,134.529282 115.014412,134.491898 115.021027,134.469574 
z"/>
<path fill="#8A4210" opacity="1.000000" stroke="none" 
	d="
M31.109118,41.021645 
	C30.896017,39.161221 30.900286,37.494926 30.960335,35.413498 
	C31.575148,35.039864 32.134178,35.081360 33.114708,35.167076 
	C33.358349,37.192810 33.180496,39.174324 32.935005,41.580662 
	C32.353737,41.742249 31.840113,41.479012 31.109118,41.021645 
z"/>
<path fill="#8A4210" opacity="1.000000" stroke="none" 
	d="
M31.393808,130.989700 
	C30.957003,129.361877 30.887463,127.720894 30.823898,125.673019 
	C31.320419,124.915092 31.810963,124.564064 32.583374,124.104477 
	C32.963524,126.011345 33.061810,128.026764 33.195171,130.471863 
	C32.740524,130.926544 32.250801,130.951553 31.393808,130.989700 
z"/>
<path fill="#7C3D11" opacity="1.000000" stroke="none" 
	d="
M89.149040,87.582695 
	C89.537933,89.978180 90.206451,92.367195 90.262138,94.770401 
	C90.415718,101.398605 90.134727,108.039307 90.378418,114.662086 
	C90.524536,118.633209 88.961807,119.938606 85.151161,119.793625 
	C79.190697,119.566856 73.217331,119.679192 66.758575,119.182800 
	C66.232574,109.929550 66.295212,101.139366 66.115761,92.354134 
	C66.040413,88.665550 67.892273,87.813156 71.056328,87.976257 
	C74.012512,88.128647 77.315552,87.431602 77.240753,92.164665 
	C77.151665,97.801056 77.267517,103.440681 77.028732,109.303207 
	C76.634476,111.118263 76.506088,112.709038 76.377701,114.299805 
	C77.567421,114.246887 78.757149,114.193977 79.946877,114.141060 
	C79.626472,112.429253 79.306068,110.717445 78.968262,108.536957 
	C78.944275,105.240143 78.931000,102.412010 78.932289,99.583870 
	C78.937180,88.849915 78.938942,88.849915 89.149040,87.582695 
z"/>
<path fill="#7C3D11" opacity="1.000000" stroke="none" 
	d="
M69.361755,45.310356 
	C76.293442,39.069633 82.083817,39.763947 87.748329,46.655758 
	C89.525810,48.818344 92.515366,49.960529 94.861122,51.690468 
	C96.022316,52.546822 96.981468,53.677147 98.032028,54.683514 
	C96.861595,55.511894 95.702881,57.039848 94.518913,57.059666 
	C83.540749,57.243393 72.557327,57.229610 61.578365,57.070522 
	C60.474731,57.054527 59.033806,55.904110 58.452919,54.880810 
	C58.176842,54.394478 59.515884,52.135479 60.194241,52.101620 
	C64.709213,51.876266 66.673981,48.453518 69.361755,45.310356 
z"/>
<path fill="#823F11" opacity="1.000000" stroke="none" 
	d="
M64.985855,124.848068 
	C63.709137,125.183670 62.444046,125.726837 61.152561,125.799225 
	C59.727131,125.879135 58.277504,125.527267 56.838409,125.363464 
	C57.074181,124.037071 57.357704,122.717003 57.534004,121.382759 
	C57.771183,119.587746 58.086060,117.782219 58.090668,115.980492 
	C58.134052,99.023415 58.180611,82.065781 58.070240,65.109322 
	C58.046574,61.473507 58.792000,59.177124 63.457428,60.477230 
	C63.876499,79.266945 63.845501,97.529335 63.941059,115.791061 
	C63.951756,117.834816 64.680275,119.874825 65.075905,121.916565 
	C65.075905,121.916565 65.026680,122.035805 64.995209,122.423538 
	C64.971115,123.490211 64.978485,124.169136 64.985855,124.848068 
z"/>
<path fill="#7A3D12" opacity="1.000000" stroke="none" 
	d="
M94.994415,59.821590 
	C98.589554,59.886398 98.134590,62.545139 98.137779,64.825836 
	C98.159195,80.121040 98.082817,95.416771 98.193085,110.711220 
	C98.225647,115.227638 98.757576,119.740463 99.109848,124.987488 
	C97.787430,125.145958 95.748970,125.588783 93.711632,125.583679 
	C91.213127,125.577431 90.098808,124.632019 91.300758,121.787506 
	C92.098000,119.900742 92.238274,117.632866 92.248856,115.533455 
	C92.338478,97.745026 92.330627,79.956100 92.643600,61.605850 
	C93.621590,60.636776 94.307999,60.229183 94.994415,59.821590 
z"/>
<path fill="#D15B05" opacity="1.000000" stroke="none" 
	d="
M65.168762,121.593781 
	C64.680275,119.874825 63.951756,117.834816 63.941059,115.791061 
	C63.845501,97.529335 63.876499,79.266945 63.873985,60.542564 
	C64.395645,60.095730 64.913574,60.111076 65.790176,60.601234 
	C66.480171,65.499336 66.811485,69.922623 67.117874,74.341522 
	C67.092949,74.337135 67.104935,74.287094 66.908302,74.695618 
	C66.528648,76.241615 66.245010,77.373276 66.179100,78.517487 
	C65.778404,85.473412 66.016502,85.687645 73.089256,85.731125 
	C78.376236,85.763618 83.662880,85.847755 88.949677,85.908897 
	C88.993607,86.281609 89.037537,86.654327 89.115250,87.304871 
	C78.938942,88.849915 78.937180,88.849915 78.932289,99.583870 
	C78.931000,102.412010 78.944275,105.240143 78.686142,108.550644 
	C78.045807,109.048302 77.670197,109.063606 77.294586,109.078911 
	C77.267517,103.440681 77.151665,97.801056 77.240753,92.164665 
	C77.315552,87.431602 74.012512,88.128647 71.056328,87.976257 
	C67.892273,87.813156 66.040413,88.665550 66.115761,92.354134 
	C66.295212,101.139366 66.232574,109.929550 66.314590,119.149025 
	C65.994850,120.143875 65.628235,120.707436 65.168762,121.593781 
z"/>
<path fill="#823F11" opacity="1.000000" stroke="none" 
	d="
M89.257614,85.618042 
	C83.662880,85.847755 78.376236,85.763618 73.089256,85.731125 
	C66.016502,85.687645 65.778404,85.473412 66.179100,78.517487 
	C66.245010,77.373276 66.528648,76.241615 67.183823,74.948547 
	C68.184731,75.819618 68.684166,76.862686 69.247330,77.870132 
	C71.627808,82.128571 75.305466,83.693359 80.057968,83.101814 
	C84.899208,82.499229 86.626053,79.053886 87.289970,74.918259 
	C88.136635,69.644211 86.627708,65.176109 81.974197,61.788372 
	C81.994217,61.049019 82.006363,60.626595 82.018509,60.204174 
	C83.823196,60.171619 85.709785,59.807255 87.403259,60.225273 
	C88.499062,60.495758 90.124756,61.910927 90.124352,62.812531 
	C90.120979,70.317505 89.794472,77.822327 89.257614,85.618042 
z"/>
<path fill="#8A4210" opacity="1.000000" stroke="none" 
	d="
M65.398712,124.929199 
	C64.978485,124.169136 64.971115,123.490211 64.952606,122.471977 
	C71.272667,122.075294 77.606407,121.907272 83.932976,122.052231 
	C85.226189,122.081871 86.492500,123.285835 87.771210,123.948479 
	C86.585335,124.562782 85.393585,125.714226 84.214561,125.701340 
	C78.078445,125.634239 71.945572,125.270676 65.398712,124.929199 
z"/>
<path fill="#8A4210" opacity="1.000000" stroke="none" 
	d="
M81.553589,60.147045 
	C82.006363,60.626595 81.994217,61.049019 81.543488,61.785324 
	C72.114113,61.839169 69.085114,64.496025 67.142792,74.345917 
	C66.811485,69.922623 66.480171,65.499336 66.177711,60.627121 
	C71.167267,60.148769 76.127960,60.119343 81.553589,60.147045 
z"/>
<path fill="#B65209" opacity="1.000000" stroke="none" 
	d="
M94.742950,59.694572 
	C94.307999,60.229183 93.621590,60.636776 92.658249,61.154636 
	C93.084717,60.699123 93.788101,60.133339 94.742950,59.694572 
z"/>
<path fill="#E46103" opacity="1.000000" stroke="none" 
	d="
M77.028732,109.303207 
	C77.670197,109.063606 78.045807,109.048302 78.703545,109.019318 
	C79.306068,110.717445 79.626472,112.429253 79.946877,114.141060 
	C78.757149,114.193977 77.567421,114.246887 76.377701,114.299805 
	C76.506088,112.709038 76.634476,111.118263 77.028732,109.303207 
z"/>
<path fill="#F46700" opacity="1.000000" stroke="none" 
	d="
M67.117874,74.341522 
	C69.085114,64.496025 72.114113,61.839169 81.535614,62.102257 
	C86.627708,65.176109 88.136635,69.644211 87.289970,74.918259 
	C86.626053,79.053886 84.899208,82.499229 80.057968,83.101814 
	C75.305466,83.693359 71.627808,82.128571 69.247330,77.870132 
	C68.684166,76.862686 68.184731,75.819618 67.380455,74.540016 
	C67.104935,74.287094 67.092949,74.337135 67.117874,74.341522 
z"/>
</svg>