<!DOCTYPE svg PUBLIC "-//W3C//DTD SVG 1.1//EN" "http://www.w3.org/Graphics/SVG/1.1/DTD/svg11.dtd">
<!-- Uploaded to: SVG Repo, www.svgrepo.com, Transformed by: SVG Repo Mixer Tools -->
<svg fill="#D6A000" width="256px" height="256px" viewBox="-13.12 -13.12 58.24 58.24" id="icon" xmlns="http://www.w3.org/2000/svg" stroke="#D6A000" stroke-width="0.00032" transform="rotate(0)matrix(1, 0, 0, 1, 0, 0)">
<g id="SVGRepo_bgCarrier" stroke-width="0" transform="translate(0,0), scale(1)">
<path transform="translate(-13.12, -13.12), scale(1.82)" d="M16,31.434624574147165C18.19936864839719,30.92677435745163,18.918964359449458,28.01786713627711,20.78567527711744,26.748802660370018C22.27709977367956,25.73487284982972,24.681837652859524,26.23470657231764,25.767242006311886,24.79446420411897C26.875198122009444,23.32429750093881,26.04612837516421,21.178814343899795,26.351502705990995,19.363407114784703C26.614075031085545,17.802451759265367,27.134848368667072,16.348059815061404,27.448998125631878,14.7966618074473C27.856979471700917,12.781885626970633,29.443245747721058,10.610010727903918,28.49315317670009,8.787074650404978C27.559812382754576,6.996280092295299,24.97929576618902,6.855819684139668,23.031843534292324,6.321497691817928C21.436350568693193,5.883742677265421,19.660330489993328,6.59146469763107,18.13710966430674,5.945689526045131C16.154036135304352,5.104958079321499,15.195682650099473,2.026198766183296,13.042598501203944,2.0865198629473483C11.070759031906313,2.141763184250742,10.243257594460227,4.775889194191734,8.883472830475856,6.20494066732507C7.715610823631729,7.4322929406413465,6.355809498697017,8.476271877956732,5.546375117147832,9.964596859877924C4.74520128701289,11.437732982375167,4.887771191141003,13.220664648593008,4.2292084704080875,14.762839957810531C3.3013148037197144,16.935715307866154,0.49232127213487853,18.583762940765094,0.8696847919684139,20.91613742130174C1.221669672237761,23.091653890506606,4.260179987998076,23.62188865879105,5.900644386645544,25.093500639066434C7.379391797483801,26.420041103696434,8.435155113521713,28.1557974488985,10.117574140197938,29.21214480088053C11.912368573922409,30.33904976174662,13.93508823169404,31.911427719338654,16,31.434624574147165" fill="#34515b" strokewidth="0"/>
</g>
<g id="SVGRepo_tracerCarrier" stroke-linecap="round" stroke-linejoin="round" stroke="#CCCCCC" stroke-width="0.128"/>
<g id="SVGRepo_iconCarrier">
<defs>
<style>.cls-1{fill:none;}</style>
</defs>
<title>no-image</title>
<path d="M30,3.4141,28.5859,2,2,28.5859,3.4141,30l2-2H26a2.0027,2.0027,0,0,0,2-2V5.4141ZM26,26H7.4141l7.7929-7.793,2.3788,2.3787a2,2,0,0,0,2.8284,0L22,19l4,3.9973Zm0-5.8318-2.5858-2.5859a2,2,0,0,0-2.8284,0L19,19.1682l-2.377-2.3771L26,7.4141Z"/>
<path d="M6,22V19l5-4.9966,1.3733,1.3733,1.4159-1.416-1.375-1.375a2,2,0,0,0-2.8284,0L6,16.1716V6H22V4H6A2.002,2.002,0,0,0,4,6V22Z"/>
<rect id="_Transparent_Rectangle_" data-name="&lt;Transparent Rectangle&gt;" class="cls-1" width="32" height="32"/>
</g>
</svg>